<svg xmlns="http://www.w3.org/2000/svg" viewBox="0 0 512 512" style="enable-background:new 0 0 512 512"
    xml:space="preserve">
    <!-- Background rectangle with rounded corners -->
    <rect x="0" y="0" width="512" height="512" rx="64" ry="64" fill="white" />

    <!-- Original paths with slight adjustment to fit better with padding -->
    <g transform="scale(0.9) translate(25.6, 25.6)">
        <path style="fill:none" d="M401.369 59.323H110.63L8.016 161.937 256 452.676l247.983-290.739z" />
        <path style="fill:none" d="M401.369 59.323 256 452.676l247.983-290.739z" />
        <path style="fill:none" d="m110.63 59.323 37.927 102.614H8.016z" />
        <path style="fill:none" d="M256 59.323 148.557 161.937h214.886z" />
        <path style="fill:none" d="M363.443 161.937h140.54L401.369 59.323z" />
        <path style="fill:none" d="M8.016 161.937h140.541L256 452.676z" />
        <path
            d="M509.651 156.269 407.038 53.655a8.012 8.012 0 0 0-5.668-2.348H110.63a8.012 8.012 0 0 0-5.668 2.348L2.348 156.269a8.016 8.016 0 0 0-.431 10.871L249.9 457.879a8.015 8.015 0 0 0 12.198 0L510.081 167.14a8.015 8.015 0 0 0-.43-10.871zM107.449 73.842l29.593 80.078H27.37l80.079-80.078zm14.691-6.502h113.933l-84.097 80.734L122.14 67.34zm20.829 102.614 10.705 28.965a8.02 8.02 0 0 0 7.521 5.24 8.018 8.018 0 0 0 7.519-10.798l-8.651-23.407h155.796a8.017 8.017 0 0 0 0-16.034H169.037L256 70.436l97.961 94.042L256 429.55l-74.648-201.991a8.018 8.018 0 0 0-15.041 5.558l66.551 180.08L25.39 169.954h117.579zm226.062 0h117.578L279.137 413.197l89.894-243.243zm5.926-16.034 8.651-23.407a8.017 8.017 0 0 0-15.04-5.558l-8.544 23.118-84.098-80.733h113.933l-8.652 23.41a8.017 8.017 0 0 0 15.04 5.558l8.303-22.466 80.079 80.078H374.957z" />
        <line x1="20" y1="400" x2="492" y2="400" style="stroke:#000000;stroke-width:20;stroke-linecap:round" />
    </g>
</svg>